<svg xmlns="http://www.w3.org/2000/svg" width="130.907" height="116.712" viewBox="0 0 130.907 116.712"><g transform="translate(0 0)"><path d="M130.906,92.8a14.1,14.1,0,0,0-11.895-13.91l-8.262-48.374a2.555,2.555,0,0,0-2.768-2.114l-6.311.616V24.842h2a2.557,2.557,0,0,0,2.557-2.557V2.557A2.557,2.557,0,0,0,103.671,0H94.556A2.557,2.557,0,0,0,92,2.557V22.285a2.557,2.557,0,0,0,2.557,2.557h2v4.673L67.938,32.307a2.557,2.557,0,0,0-2.308,2.545v7.813a2.557,2.557,0,0,0,2.557,2.557H96.1v33.5H74.557a2.557,2.557,0,1,0,0,5.114h42.267a8.968,8.968,0,1,1,0,17.935H14.08a8.968,8.968,0,1,1,0-17.935H54.1a2.557,2.557,0,0,0,0-5.114H14.08a14.08,14.08,0,0,0-2.557,27.926v7.512a2.557,2.557,0,0,0,2.557,2.557H36.153a2.557,2.557,0,0,0,2.557-2.557V106.88H92.2v7.276a2.557,2.557,0,0,0,2.557,2.557h22.072a2.557,2.557,0,0,0,2.557-2.557v-7.512A14.1,14.1,0,0,0,130.906,92.8ZM97.113,5.114h4V19.728h-4Zm4.1,73.6V42.665a2.557,2.557,0,0,0-2.557-2.557H70.744V37.171l28.629-2.793h0l6.733-.657,7.684,45ZM33.6,111.6H16.637V106.88H33.6Zm80.672,0H97.309V106.88h16.959Zm0,0" transform="translate(0.001 0)" fill="rgba(255,0,95,0.73)" fill-rule="evenodd"/><path d="M47.631,352.953a2.557,2.557,0,1,0,0,5.113H59.155a2.557,2.557,0,1,0,0-5.113Zm0,0" transform="translate(-33.55 -262.711)" fill="rgba(255,0,95,0.73)" fill-rule="evenodd"/><path d="M415.933,358.066a2.557,2.557,0,0,0,0-5.113H404.409a2.557,2.557,0,0,0,0,5.113Zm0,0" transform="translate(-299.108 -262.711)" fill="rgba(255,0,95,0.73)" fill-rule="evenodd"/><path d="M244.166,312.993a2.557,2.557,0,1,0-2.557-2.557A2.562,2.562,0,0,0,244.166,312.993Zm0,0" transform="translate(-179.835 -229.161)" fill="rgba(255,0,95,0.73)" fill-rule="evenodd"/></g></svg>