<svg xmlns="http://www.w3.org/2000/svg" width="76.259" height="66" viewBox="0 0 76.259 66"><g transform="translate(0.002 -0.499)"><path d="M70.367,6.39a20.168,20.168,0,0,0-28.488,0l-.593.593a1.489,1.489,0,1,0,2.106,2.106l.593-.593A17.165,17.165,0,0,1,69.3,31.638H63.969L53.321,11.819a1.489,1.489,0,0,0-2.623,0L35.176,40.708l-12.4-23.075a1.489,1.489,0,0,0-2.623,0L12.631,31.638H6.959A17.165,17.165,0,0,1,32.27,8.5l.593.593a1.489,1.489,0,1,0,2.106-2.106l-.593-.593A20.144,20.144,0,0,0,5.888,34.877L37.074,66.064a1.49,1.49,0,0,0,2.106,0L70.366,34.877a20.167,20.167,0,0,0,0-28.488ZM38.127,62.9,9.839,34.616h3.683a1.489,1.489,0,0,0,1.311-.784l6.634-12.348,12.4,23.075a1.489,1.489,0,0,0,2.623,0L52.009,15.669l9.758,18.163a1.488,1.488,0,0,0,1.311.784h3.337Zm0,0" transform="translate(0 0)" fill="#fff" fill-rule="evenodd"/><path d="M247.493,72.357A1.489,1.489,0,1,0,246,70.868,1.492,1.492,0,0,0,247.493,72.357Zm0,0" transform="translate(-209.365 -58.62)" fill="#fff" fill-rule="evenodd"/></g></svg>