<svg xmlns="http://www.w3.org/2000/svg" width="84.918" height="69.601" viewBox="0 0 84.918 69.601">
  <g id="twitter" transform="translate(0 -46.177)">
    <g id="Group_10" data-name="Group 10" transform="translate(0 46.177)">
      <g id="Group_9" data-name="Group 9">
        <g id="Group_8" data-name="Group 8">
          <path id="Path_16" data-name="Path 16" d="M137.853,147.387l.077.035a1.659,1.659,0,1,0,1.382-3.016l-.069-.031a1.659,1.659,0,1,0-1.39,3.012Z" transform="translate(-114.185 -127.961)" fill="#fff"/>
          <path id="Path_17" data-name="Path 17" d="M84.528,54.608a1.659,1.659,0,0,0-1.941-.447,32.158,32.158,0,0,1-3.079,1.181,18.561,18.561,0,0,0,3.086-5.777,1.659,1.659,0,0,0-2.423-1.938,31.7,31.7,0,0,1-9.268,3.68A18.395,18.395,0,0,0,39.764,64.569a18.787,18.787,0,0,0,.108,2.006,46.042,46.042,0,0,1-7.7-1.4,1.659,1.659,0,0,0-.87,3.2,49.465,49.465,0,0,0,10.462,1.661,1.659,1.659,0,0,0,1.7-2.019,15.819,15.819,0,0,1-.387-3.45A15.077,15.077,0,0,1,69.147,54.248a1.657,1.657,0,0,0,1.527.494A34.883,34.883,0,0,0,77.3,52.755a15.146,15.146,0,0,1-4.51,4.144,1.659,1.659,0,0,0,1.047,3.07,34.788,34.788,0,0,0,4.544-.849A32.049,32.049,0,0,1,73.921,63a1.659,1.659,0,0,0-.69,1.386l.05,2.148c-.01,22.579-17.2,45.927-45.953,45.927A45.84,45.84,0,0,1,8.4,108.381a35.014,35.014,0,0,0,19.062-7.394,1.659,1.659,0,0,0-.987-2.965A15.148,15.148,0,0,1,13.415,90q.271.007.546.007a18.864,18.864,0,0,0,4.83-.623,1.659,1.659,0,0,0-.1-3.229A15.154,15.154,0,0,1,6.809,73.81a17.743,17.743,0,0,0,5.663,1.08,1.659,1.659,0,0,0,.961-3.039,15.095,15.095,0,0,1-5.7-17.957,49.478,49.478,0,0,0,9.1,7.872,1.659,1.659,0,0,0,1.849-2.754A46.2,46.2,0,0,1,8.624,49.848a1.658,1.658,0,0,0-2.716.209A18.417,18.417,0,0,0,7.077,70.345q-.671-.293-1.327-.655a1.659,1.659,0,0,0-2.46,1.452v.2a18.489,18.489,0,0,0,7.848,15.084l-.03-.006a1.659,1.659,0,0,0-1.887,2.138A18.45,18.45,0,0,0,22,100.712a31.809,31.809,0,0,1-16.356,4.456,34.056,34.056,0,0,1-3.8-.213A1.659,1.659,0,0,0,.764,108a49.139,49.139,0,0,0,26.565,7.778,49.847,49.847,0,0,0,21.12-4.484A46.7,46.7,0,0,0,63.92,99.7,50.922,50.922,0,0,0,76.6,66.513c0-.013,0-.026,0-.039l-.031-1.306A35.228,35.228,0,0,0,84.639,56.6,1.659,1.659,0,0,0,84.528,54.608Z" transform="translate(0 -46.177)" fill="#fff"/>
        </g>
      </g>
    </g>
    <g id="Group_12" data-name="Group 12" transform="translate(59.962 86.218)">
      <g id="Group_11" data-name="Group 11">
        <path id="Path_18" data-name="Path 18" d="M364.049,287.833a1.659,1.659,0,0,0-2.276.569l0,0a1.659,1.659,0,1,0,2.279-.574Z" transform="translate(-361.534 -287.597)" fill="#fff"/>
      </g>
    </g>
    <g id="Group_14" data-name="Group 14" transform="translate(45.868 91.067)">
      <g id="Group_13" data-name="Group 13" transform="translate(0 0)">
        <path id="Path_19" data-name="Path 19" d="M289.927,317.211a1.659,1.659,0,0,0-2.335.225,36.981,36.981,0,0,1-10.2,8.639,1.659,1.659,0,1,0,1.646,2.88,40.29,40.29,0,0,0,11.116-9.409A1.659,1.659,0,0,0,289.927,317.211Z" transform="translate(-276.555 -316.832)" fill="#fff"/>
      </g>
    </g>
  </g>
</svg>
