<svg xmlns="http://www.w3.org/2000/svg" width="111.661" height="108.665" viewBox="0 0 111.661 108.665"><g transform="translate(0 0)"><path d="M248.181,7.181A2.181,2.181,0,0,1,246,5V2.181a2.181,2.181,0,1,1,4.362,0V5A2.181,2.181,0,0,1,248.181,7.181Zm0,0" transform="translate(-192.35)" fill="rgba(255,0,95,0.73)"/><path d="M339.069,72.507a2.182,2.182,0,0,1-1.542-3.724l3.681-3.68a2.181,2.181,0,1,1,3.084,3.085l-3.681,3.68A2.174,2.174,0,0,1,339.069,72.507Zm0,0" transform="translate(-263.417 -50.406)" fill="rgba(255,0,95,0.73)"/><path d="M144.1,72.507a2.171,2.171,0,0,1-1.542-.639l-3.681-3.68a2.181,2.181,0,0,1,3.084-3.085l3.681,3.68a2.182,2.182,0,0,1-1.542,3.724Zm0,0" transform="translate(-108.087 -50.406)" fill="rgba(255,0,95,0.73)"/><path d="M465.423,75.279a2.181,2.181,0,0,1-1.542-3.724l1.511-1.511a2.181,2.181,0,0,1,3.085,3.085l-1.512,1.511A2.174,2.174,0,0,1,465.423,75.279Zm0,0" transform="translate(-362.215 -54.269)" fill="rgba(255,0,95,0.73)"/><path d="M28.58,75.279a2.172,2.172,0,0,1-1.542-.639l-1.512-1.511a2.181,2.181,0,0,1,3.084-3.085l1.512,1.511a2.181,2.181,0,0,1-1.542,3.724Zm0,0" transform="translate(-19.459 -54.269)" fill="rgba(255,0,95,0.73)"/><path d="M451.264,324.152h0a2.181,2.181,0,1,0,2.183,2.181A2.18,2.18,0,0,0,451.261,324.152Zm0,0" transform="translate(-351.143 -253.459)" fill="rgba(255,0,95,0.73)"/><path d="M111.219,82.936a2.18,2.18,0,0,0-1.444-.846L106.2,81.6l-.049-.006a51.558,51.558,0,0,0-6.706-.328,44.115,44.115,0,0,0,.94-18.278l-.457-3.033a2.181,2.181,0,0,0-2.482-1.832l-3.413.513-.048.008A49.031,49.031,0,0,0,72.933,67.67a41.271,41.271,0,0,0-14.09-18.951c-.507-.406-1.137-.909-1.3-1.09a2.182,2.182,0,0,0-3.318-.13c-.089.08-.306.257-.5.416A47.536,47.536,0,0,0,38.974,67.857a49.009,49.009,0,0,0-21.3-9.212l-.048-.008-3.413-.514a2.181,2.181,0,0,0-2.481,1.832l-.457,3.033a45.326,45.326,0,0,0,.886,18.278,51.635,51.635,0,0,0-6.653.329l-.049.006-3.579.491A2.182,2.182,0,0,0,.021,84.557l.457,3.225a50.941,50.941,0,0,0,40.2,42.8l.041.043L54.23,144.592a2.179,2.179,0,0,0,1.568.664h0a2.181,2.181,0,0,0,1.569-.668L70.8,130.646l.028-.03A50.676,50.676,0,0,0,91.8,121.054a51.4,51.4,0,0,0,4.236-3.637,2.181,2.181,0,1,0-3.017-3.149,47.323,47.323,0,0,1-3.878,3.328,46.267,46.267,0,0,1-28.316,9.646l15.008-13.1a2.181,2.181,0,1,0-2.867-3.287L57.976,123.94c2.644-14.076,7.243-23.484,13.993-28.673a46.365,46.365,0,0,1,33.66-9.342l1.384.189-.15,1.057a46.829,46.829,0,0,1-3.966,13.354,2.181,2.181,0,1,0,3.949,1.853,51.2,51.2,0,0,0,4.336-14.6l.457-3.225a2.189,2.189,0,0,0-.42-1.62ZM55.8,51.868l.322.257A36.448,36.448,0,0,1,69.326,70.653a48.563,48.563,0,0,0-6.387,7.094A47.759,47.759,0,0,0,55.83,91.7a47.753,47.753,0,0,0-7.11-13.956,48.682,48.682,0,0,0-6.179-6.9A42.494,42.494,0,0,1,55.8,51.868ZM15.591,63.637l.132-.877,1.233.186A44.312,44.312,0,0,1,45.207,80.332,42.957,42.957,0,0,1,53.614,107.6c-2.838-6.963-6.571-12.182-11.266-15.792A50.666,50.666,0,0,0,16.76,81.543a41.147,41.147,0,0,1-1.169-17.905ZM4.8,87.171l-.15-1.057,1.384-.19a46.374,46.374,0,0,1,33.66,9.342c6.741,5.183,11.3,14.43,13.922,28.259-.019.1-.037.2-.055.3L38.693,110.86a2.181,2.181,0,1,0-2.868,3.287l15.007,13.095A46.543,46.543,0,0,1,4.8,87.171Zm59.112,44.341-8.114,8.424L47.64,131.5q1.6.1,3.207.1,2.482,0,4.983-.241,2.51.243,5,.243,1.542,0,3.075-.093Zm5.4-39.7c-4.657,3.581-8.444,8.89-11.264,15.788a42.958,42.958,0,0,1,8.407-27.264A44.31,44.31,0,0,1,94.7,62.945l1.232-.186.133.877A40.082,40.082,0,0,1,94.834,81.55,50.674,50.674,0,0,0,69.309,91.808Zm0,0" transform="translate(0.001 -36.591)" fill="rgba(255,0,95,0.73)"/></g></svg>