<svg xmlns="http://www.w3.org/2000/svg" width="130.422" height="69.767" viewBox="0 0 130.422 69.767"><g transform="translate(0 0)"><path d="M127.874,13.739h-12.2V2.826A2.7,2.7,0,0,0,113.13,0H98.385a2.7,2.7,0,0,0-2.547,2.826V24.534H34.583V2.826A2.7,2.7,0,0,0,32.036,0H17.292a2.7,2.7,0,0,0-2.547,2.826V13.739H2.547A2.7,2.7,0,0,0,0,16.565V53.2a2.7,2.7,0,0,0,2.547,2.826h12.2V66.941a2.7,2.7,0,0,0,2.547,2.826H32.036a2.7,2.7,0,0,0,2.547-2.826V45.233H55.022a2.841,2.841,0,0,0,0-5.651H34.583v-9.4H95.838v9.4H75.4a2.841,2.841,0,0,0,0,5.651H95.838V66.941a2.7,2.7,0,0,0,2.547,2.826H113.13a2.7,2.7,0,0,0,2.547-2.826V56.028h12.2a2.7,2.7,0,0,0,2.547-2.826V16.565a2.7,2.7,0,0,0-2.547-2.826ZM29.489,64.115h-9.65V40.444a2.7,2.7,0,0,0-2.547-2.826,2.7,2.7,0,0,0-2.547,2.826v9.932H5.095V19.39h9.65v9.932a2.7,2.7,0,0,0,2.547,2.826,2.7,2.7,0,0,0,2.547-2.826V5.651h9.65Zm95.838-13.739h-9.65V40.444a2.561,2.561,0,1,0-5.095,0V64.115h-9.65V5.651h9.65V29.322a2.561,2.561,0,1,0,5.095,0V19.391h9.65Zm0,0" transform="translate(0)" fill="rgba(255,0,95,0.73)" fill-rule="evenodd"/><path d="M248.826,140.074a2.826,2.826,0,1,0,2.826,2.826A2.831,2.831,0,0,0,248.826,140.074Zm0,0" transform="translate(-183.615 -100.493)" fill="rgba(255,0,95,0.73)" fill-rule="evenodd"/></g></svg>